# xmcd
#
# Track frame offsets: 
#        183
#        11553
#        23815
#        34878
#        46668
#        57418
#        67285
#        77898
#        88015
#        98895
#
# Disc length: 1484 seconds
#
# Revision: 0
# Processed by: cddbd v1.4PL0 Copyright (c) Steve Scherf et al.
# Submitted via: ExactAudioCopy v0.90b3
#
DISCID=7f05ca0a
DTITLE=Dolly Parton - In The Beginning
DYEAR=1900
DGENRE=Country
TTITLE0=Dumb Blonde
TTITLE1=Fuel To The Flame
TTITLE2=The Little Things
TTITLE3=The Company You Keep
TTITLE4=Why, Why, Why
TTITLE5=Something Fishy
TTITLE6=Put It Off Until Tomorrow
TTITLE7=I'm In No Condition
TTITLE8=Too Lonely Too Long
TTITLE9=As Long As I Love
EXTD=
EXTT0=
EXTT1=
EXTT2=
EXTT3=
EXTT4=
EXTT5=
EXTT6=
EXTT7=
EXTT8=
EXTT9=
PLAYORDER=
